# xmcd CD database file
#
# Track frame offsets:
#	150
#	14635
#	29095
#	41342
#	55792
#	69781
#	84518
#	96808
#	109977
#	122063
#	138774
#	151654
#
# Disc length: 2242 seconds
#
# Revision: 0
# Processed by: cddbd v1.4PL0 Copyright (c) Steve Scherf et al.
# Submitted via: CDex 1.51
#
DISCID=9308c00c
DTITLE=The Derailers - Full Western Dress
DYEAR=1999
DGENRE=Country
TTITLE0=The right place
TTITLE1=Long on love
TTITLE2=Whatever made you change your mind
TTITLE3=The lost and found
TTITLE4=Me,myself,and I
TTITLE5=Just to spend the night with you
TTITLE6=Someone else's problem
TTITLE7=(I'm gonna)love,love,love you
TTITLE8=Then she kissed me
TTITLE9=Longing
TTITLE10=Hold on fool heart
TTITLE11=Knee deep in the blues
EXTD=YEAR: 1999
EXTT0=
EXTT1=
EXTT2=
EXTT3=
EXTT4=
EXTT5=
EXTT6=
EXTT7=
EXTT8=
EXTT9=
EXTT10=
EXTT11=
PLAYORDER=
